<?xml version="1.0"?>
<svg version="1.1" xmlns="http://www.w3.org/2000/svg" width="400" height="200" style="border: dashed 2px #aaa"><path fill="#" d="M16.0458984375,114.310546875q-0.0166015625-0.498046875-0.0166015625-0.99609375q0-1.560546875,0.166015625-3.1376953125q0.19921875-2.091796875,0.265625-4.1171875q0.06640625-2.3740234375,0.19921875-4.9306640625q0.0830078125-1.39453125,0.0830078125-2.755859375q0-1.1123046875-0.0498046875-2.2080078125q0.166015625-0.3818359375,0.43994140625-0.5146484375t0.68896484375-0.1328125q0.19921875,0,0.42333984375,0.033203125t0.39013671875,0.166015625q0.232421875,0.033203125,0.57275390625,0.06640625t0.52294921875,0.19921875q0.06640625,0.099609375,0.34033203125,0.6806640625t0.6474609375,1.4111328125t0.7802734375,1.80126953125t0.7802734375,1.8427734375t0.6474609375,1.53564453125t0.34033203125,0.830078125q1.560546875-2.822265625,3.0546875-5.80224609375t3.2705078125-5.61962890625q0.166015625-0.232421875,0.57275390625-0.34033203125t0.67236328125-0.10791015625q0.7138671875,0,1.03759765625,0.34033203125t0.42333984375,0.87158203125q0.06640625,0.33203125,0.0830078125,0.7138671875q0.0166015625,0.19921875-0.0166015625,0.4150390625q-0.06640625,0.6142578125-0.06640625,1.162109375q0,3.8681640625-0.265625,7.67822265625t-0.4814453125,7.69482421875q-0.033203125,0.796875-0.033203125,1.66015625t0.033203125,1.79296875q0.0166015625,0.33203125,0.0166015625,0.6474609375q0,1.4609375-0.2490234375,2.72265625q-0.232421875,0.3818359375-0.763671875,0.4814453125t-0.896484375,0.099609375q-0.7802734375,0-1.494140625-0.365234375l-0.1826171875-0.2158203125l-0.06640625-0.265625t-0.033203125-0.265625q0-2.4072265625,0.17431640625-4.84765625t0.39013671875-4.87255859375t0.45654296875-4.85595703125t0.40673828125-4.84765625q-0.9794921875,1.626953125-1.90087890625,3.31201171875t-1.73486328125,3.42822265625q-0.298828125,0.6806640625-0.57275390625,1.4609375t-0.65576171875,1.39453125q-0.19921875,0.298828125-0.67236328125,0.365234375t-0.82177734375,0.06640625q-0.33203125,0-0.68896484375-0.1162109375t-0.48974609375-0.498046875q-0.6142578125-1.8759765625-1.3115234375-3.6689453125t-1.4111328125-3.6357421875q0,1.228515625,0.0498046875,3.17919921875t0.0498046875,4.04248046875t-0.06640625,4.0009765625t-0.3154296875,3.021484375q-0.06640625,0.4150390625-0.53955078125,0.5146484375t-0.82177734375,0.099609375q-0.265625,0-0.50634765625-0.033203125t-0.47314453125-0.1328125z M35.763076171875,107.10546875q0-0.4814453125,0.27392578125-0.630859375t0.68896484375-0.1494140625q0.6806640625,0,1.03759765625,0.25732421875t0.35693359375,0.90478515625q0,0.7802734375,0.1162109375,1.95068359375t0.34033203125,2.2744140625t0.53125,1.90087890625t0.63916015625,0.796875q0.6142578125,0,1.08740234375-0.9462890625t0.830078125-2.32421875t0.6142578125-2.96337890625t0.35693359375-2.83056640625q0.06640625-0.6806640625,0.32373046875-0.98779296875t0.93798828125-0.30712890625q0.7802734375,0,1.13720703125,0.6474609375t0.45654296875,1.59375q0.0830078125,0.8134765625,0.0830078125,1.693359375l0,0.2822265625l0,0.6640625q0,0.630859375,0.0166015625,1.12890625l0.4814453125,10.1767578125l0.06640625,1.693359375q0.033203125,0.232421875,0.0498046875,0.43994140625t0.0166015625,0.43994140625q0,0.9462890625-0.40673828125,1.22021484375t-1.31982421875,0.27392578125q-0.19921875,0-0.50634765625-0.033203125t-0.59765625-0.1328125t-0.498046875-0.27392578125t-0.20751953125-0.43994140625l0.06640625-0.166015625q0.0830078125-0.99609375,0.0830078125-2.091796875l0-0.3486328125q-0.0166015625-1.294921875-0.0830078125-2.623046875t-0.1494140625-2.65625t-0.0830078125-2.556640625q-0.232421875,0.5146484375-0.53955078125,1.0625t-0.7138671875,0.98779296875t-0.92138671875,0.73046875t-1.162109375,0.29052734375q-0.9462890625,0-1.560546875-0.498046875t-0.95458984375-1.294921875t-0.48974609375-1.78466796875t-0.19921875-1.9755859375t-0.06640625-1.88427734375t-0.1328125-1.5107421875z M49.63650390625,114.2109375q0.099609375-2.689453125,0.17431640625-5.51171875t0.14111328125-5.56982421875t0.099609375-5.33740234375t0.033203125-4.8310546875q0.033203125-0.4482421875,0.7802734375-0.7138671875t1.78466796875-0.39013671875t2.19140625-0.15771484375t2.05029296875-0.033203125q0.19921875,0,0.830078125-0.0166015625l0.3154296875,0q0.4814453125,0,1.0126953125,0.033203125q0.697265625,0.0498046875,1.22021484375,0.2158203125t0.52294921875,0.4814453125q0,0.232421875-0.1826171875,0.37353515625t-0.42333984375,0.20751953125t-0.498046875,0.0830078125t-0.35693359375,0.0166015625q-1.560546875,0-3.087890625-0.0498046875q-0.4150390625-0.0166015625-0.8466796875-0.0166015625q-1.12890625,0-2.291015625,0.099609375q0.06640625,0.19921875,0.10791015625,1.20361328125t0.04150390625,2.26611328125t-0.0166015625,2.46533203125t0,1.85107421875l0,4.31640625q0.5146484375-0.033203125,1.0126953125-0.033203125l0.99609375,0l0.6640625-0.033203125q0.33203125-0.0166015625,0.697265625-0.0166015625q0.3818359375,0,0.7802734375,0.0166015625q0.796875,0.033203125,1.45263671875,0.19091796875t0.65576171875,0.55615234375q0,0.298828125-0.2490234375,0.43994140625t-0.55615234375,0.20751953125t-0.5810546875,0.06640625l-0.30712890625,0q-0.9462890625,0-1.96728515625-0.06640625t-1.90087890625-0.06640625q-0.166015625,0.06640625-0.35693359375,0.0498046875t-0.34033203125-0.0166015625q0,2.490234375-0.0498046875,4.95556640625t-0.1162109375,4.90576171875q0,0.4814453125-0.60595703125,0.630859375t-1.15380859375,0.1494140625q-0.6142578125,0-0.97119140625-0.1494140625t-0.50634765625-0.48974609375t-0.1826171875-0.90478515625q-0.0166015625-0.3154296875-0.033203125-0.697265625q0-0.3154296875,0.0166015625-0.6806640625z M62.845869140625,111.123046875q0-0.9462890625,0.24072265625-1.95068359375t0.763671875-1.8095703125t1.31982421875-1.3115234375t1.92578125-0.50634765625q0.8466796875,0,1.78466796875,0.29052734375t1.71826171875,0.830078125t1.27001953125,1.31982421875t0.48974609375,1.7431640625q0,1.162109375-0.42333984375,2.2080078125t-1.18701171875,1.86767578125t-1.78466796875,1.294921875t-2.21630859375,0.47314453125q-0.9794921875,0-1.7099609375-0.35693359375t-1.22021484375-0.95458984375t-0.73046875-1.4111328125t-0.24072265625-1.7265625z M65.286298828125,111.08984375q0,0.298828125,0.09130859375,0.8798828125t0.27392578125,1.13720703125t0.47314453125,0.962890625t0.70556640625,0.37353515625q0.8798828125-0.099609375,1.45263671875-0.57275390625t0.9296875-1.15380859375t0.498046875-1.4775390625t0.14111328125-1.5107421875q0-0.9130859375-0.35693359375-1.52734375t-1.17041015625-0.99609375q0,0.033203125,0.033203125,0.033203125t0.033203125-0.033203125l-0.4150390625-0.099609375q-0.166015625-0.06640625-0.40673828125-0.1494140625t-0.47314453125-0.365234375q-0.6474609375,0.232421875-1.00439453125,0.59765625t-0.53955078125,0.88818359375t-0.22412109375,1.25341796875t-0.04150390625,1.759765625z M75.09234375,111.123046875q0-0.9462890625,0.24072265625-1.95068359375t0.763671875-1.8095703125t1.31982421875-1.3115234375t1.92578125-0.50634765625q0.8466796875,0,1.78466796875,0.29052734375t1.71826171875,0.830078125t1.27001953125,1.31982421875t0.48974609375,1.7431640625q0,1.162109375-0.42333984375,2.2080078125t-1.18701171875,1.86767578125t-1.78466796875,1.294921875t-2.21630859375,0.47314453125q-0.9794921875,0-1.7099609375-0.35693359375t-1.22021484375-0.95458984375t-0.73046875-1.4111328125t-0.24072265625-1.7265625z M77.5327734375,111.08984375q0,0.298828125,0.09130859375,0.8798828125t0.27392578125,1.13720703125t0.47314453125,0.962890625t0.70556640625,0.37353515625q0.8798828125-0.099609375,1.45263671875-0.57275390625t0.9296875-1.15380859375t0.498046875-1.4775390625t0.14111328125-1.5107421875q0-0.9130859375-0.35693359375-1.52734375t-1.17041015625-0.99609375q0,0.033203125,0.033203125,0.033203125t0.033203125-0.033203125l-0.4150390625-0.099609375q-0.166015625-0.06640625-0.40673828125-0.1494140625t-0.47314453125-0.365234375q-0.6474609375,0.232421875-1.00439453125,0.59765625t-0.53955078125,0.88818359375t-0.22412109375,1.25341796875t-0.04150390625,1.759765625z M87.670849609375,110.6083984375q0-1.294921875,0.27392578125-2.34912109375t0.87158203125-1.78466796875t1.56884765625-1.13720703125t2.36572265625-0.40673828125q0.7802734375,0,1.59375,0.20751953125t1.39453125,0.77197265625q0-0.33203125,0.06640625-1.36962890625t0.166015625-2.41552734375t0.20751953125-2.888671875t0.19091796875-2.8056640625t0.1494140625-2.1748046875t0.099609375-0.99609375q0.166015625-0.4814453125,0.6142578125-0.57275390625t0.8466796875-0.09130859375q1.0458984375,0,1.28662109375,0.33203125t0.24072265625,1.328125q0,3.6357421875-0.32373046875,7.23828125t-0.32373046875,7.23828125q0,2.3408203125,0.09130859375,4.70654296875t0.65576171875,4.65673828125l0.1826171875,0.166015625l0.099609375,0.298828125l-0.2490234375,0.3818359375q-0.630859375,0.3984375-1.4609375,0.3984375l-0.06640625,0q-0.8466796875,0-1.560546875-0.3984375q-0.265625-0.166015625-0.43994140625-0.98779296875t-0.27392578125-1.8095703125t-0.1494140625-1.90087890625t-0.0830078125-1.294921875q-0.5810546875,1.328125-1.58544921875,2.28271484375t-2.53173828125,0.95458984375q-1.1953125,0-1.958984375-0.5146484375t-1.18701171875-1.3115234375t-0.59765625-1.78466796875t-0.17431640625-1.96728515625z M89.679638671875,110.7080078125q0,0.3818359375,0.09130859375,1.12890625t0.29052734375,1.494140625t0.55615234375,1.328125t0.93798828125,0.5810546875q0.7802734375-0.3818359375,1.4111328125-1.27001953125t1.08740234375-1.958984375t0.7138671875-2.1416015625t0.25732421875-1.85107421875q0-0.9794921875-0.7138671875-1.626953125t-1.7099609375-0.6474609375q-0.298828125,0-0.60595703125,0.1162109375t-0.57275390625,0.265625q-0.6142578125,0.5810546875-0.95458984375,1.05419921875t-0.5146484375,0.9794921875t-0.22412109375,1.12060546875t-0.0498046875,1.427734375z"/><path fill="#" d=""/></svg>
